<?xml version="1.0" encoding="UTF-8" standalone="no"?>
<!-- Created with Inkscape (http://www.inkscape.org/) -->

<svg
   version="1.1"
   id="svg7261"
   width="496"
   height="496"
   viewBox="0 0 496 496"
   sodipodi:docname="distro-brgv-os-symbolic-1024.svg"
   inkscape:version="1.4 (e7c3feb100, 2024-10-09)"
   xmlns:inkscape="http://www.inkscape.org/namespaces/inkscape"
   xmlns:sodipodi="http://sodipodi.sourceforge.net/DTD/sodipodi-0.dtd"
   xmlns="http://www.w3.org/2000/svg"
   xmlns:svg="http://www.w3.org/2000/svg">
  <sodipodi:namedview
     id="namedview1"
     pagecolor="#ffffff"
     bordercolor="#000000"
     borderopacity="0.25"
     inkscape:showpageshadow="2"
     inkscape:pageopacity="0.0"
     inkscape:pagecheckerboard="0"
     inkscape:deskcolor="#d1d1d1"
     inkscape:zoom="1.6210937"
     inkscape:cx="229.4747"
     inkscape:cy="243.66265"
     inkscape:window-width="1920"
     inkscape:window-height="1025"
     inkscape:window-x="0"
     inkscape:window-y="27"
     inkscape:window-maximized="1"
     inkscape:current-layer="g7267" />
  <defs
     id="defs7265" />
  <g
     id="g7267"
     transform="matrix(0.484,0,0,0.484,9.0558555,4.8639161)">
    <path
       style="fill:#cccccc;fill-opacity:1"
       d="M 426.36249,898.36572 C 405.41398,897.50896 358.61095,891.87215 335.45456,887.41707 319.3063,884.31028 292.31898,877.11519 276.99365,871.83079 246.92693,861.46335 224.26227,845.51306 216.59518,829.32528 213.36249,822.5 213.36249,822.5 213.36249,604 c 0,-211.71346 0.0582,-218.60871 1.87453,-222 7.1721,-13.39129 24.90801,-25.71253 51.12547,-35.51716 12.12383,-4.53399 51.91739,-14.59956 68.76033,-17.39255 34.67532,-5.75007 58.21588,-8.09386 102.98967,-10.25409 21.36752,-1.03093 25.75,-1.49138 25.75,-2.70547 0,-0.80471 -2.35558,-4.98832 -5.23462,-9.29692 -5.23462,-7.83381 -5.23462,-7.83381 -15.75,-7.84992 -11.67665,-0.0179 -37.64119,-3.05294 -47.88371,-5.59723 -22.50942,-5.59143 -41.7121,-18.00004 -57.08315,-36.88666 -16.65868,-20.46874 -23.63508,-35.21108 -30.75946,-65 -3.53046,-14.76182 -3.5935,-15.39697 -3.97033,-40 -0.37681,-24.60134 -0.34629,-25.06331 1.91422,-28.9701 4.0526,-7.00404 5.47362,-7.30724 21.94883,-4.68321 46.30267,7.3747 64.0968,12.87688 88.68634,27.42299 17.04644,10.08394 35.47075,29.53006 43.98121,46.42041 5.56507,11.04474 10.92875,25.58547 13.20931,35.80991 2.02214,9.06582 2.21653,12.42887 2.08086,36 -0.14964,26 -0.14964,26 3.74432,32.8866 l 3.89397,6.8866 4.16219,-6.3866 c 4.16219,-6.3866 4.16219,-6.3866 3.53369,-26.3866 -0.49409,-15.72299 -0.29596,-22.03158 0.92648,-29.5 5.39208,-32.94232 20.68724,-59.05899 45.59985,-77.86227 13.2159,-9.97496 35.13041,-19.76552 60.64037,-27.09179 20.25189,-5.81619 53.1081,-9.85647 58.1614,-7.15203 3.24281,1.7355 5.89807,7.7607 6.65806,15.1082 0.90664,8.76528 -1.01796,41.91501 -2.99857,51.64822 -3.69958,18.18058 -15.08313,45.02644 -24.95425,58.84967 -12.21224,17.10166 -30.95593,30.7066 -53.00701,38.47464 -16.87423,5.94436 -24.92635,7.23381 -48.5,7.76666 -21.5,0.48598 -21.5,0.48598 -26.25,7.34829 -5.30093,7.65824 -5.86841,9.90865 -2.5,9.91395 3.76545,0.006 33.04442,1.89009 54.75,3.52327 76.23218,5.73588 133.70784,19.90218 163.88135,40.39262 8.20632,5.5728 16.42381,14.03336 19.29792,19.86873 2.32073,4.71184 2.32073,4.71184 2.32073,222.21184 0,217.5 0,217.5 -2.82186,223.24655 -10.52058,21.42452 -35.92455,36.83943 -85.20742,51.70312 -24.44374,7.37221 -51.15266,12.36463 -91.97072,17.19112 -16.06003,1.899 -24.03546,2.15122 -74,2.34026 -30.8,0.11652 -59.6,0.0646 -64,-0.11533 z m 98,-21.3861 c 48.58484,-2.35374 92.41443,-8.90212 126.71298,-18.93159 17.2871,-5.05504 29.14869,-9.70408 44.11361,-17.28991 12.39381,-6.28252 20.7089,-13.05849 24.12052,-19.65584 2.83649,-5.48517 3.49728,-18.96197 3.52579,-71.90896 0.0271,-50.30668 0.0271,-50.30668 -4.2229,-47.70065 -8.7026,5.33629 -21.74472,11.47657 -31.84086,14.99081 -28.70393,9.99118 -79.60381,20.48273 -99.48483,20.50593 -8.36271,0.01 -9.25778,-0.18324 -11.39365,-2.45678 -3.38428,-3.6024 -3.93865,-11.13167 -1.08568,-14.74545 2.27117,-2.87683 2.65517,-2.97875 18.05502,-4.79208 53.85594,-6.34153 105.38528,-22.703 122.33473,-38.84341 8.05926,-7.67456 7.66527,-4.30218 7.66527,-65.61185 0,-29.99691 -0.22396,-54.53984 -0.49769,-54.53984 -0.27372,0 -2.70295,1.58433 -5.39827,3.52073 -19.03714,13.67682 -60.92575,25.46234 -112.10404,31.5409 -27.46177,3.26169 -28.86312,3.34958 -31.43762,1.97175 -5.25311,-2.81138 -6.21657,-11.53304 -1.7657,-15.9839 3.6145,-3.61451 11.44685,-5.40706 35.36809,-8.09454 29.38452,-3.30127 48.48319,-7.67915 72.1933,-16.54847 23.50334,-8.79197 33.98699,-14.75874 39.63829,-22.56015 3.00364,-4.1464 3.00364,-4.1464 3.00364,-51.99636 0,-26.31748 -0.2052,-47.84996 -0.45599,-47.84996 -0.2508,0 -2.6133,1.27022 -5.25,2.82271 -8.18183,4.81747 -24.29838,11.78859 -35.79401,15.4825 -14.69263,4.7212 -23.25017,6.83505 -47,11.60975 -53.17441,10.69026 -76.3603,12.58504 -154,12.58504 -55.75856,0 -65.10543,-0.38695 -98.5,-4.0778 -26.82353,-2.9646 -78.44233,-12.55298 -95,-17.6466 -10.30818,-3.17109 -30.66874,-11.52018 -40.75,-16.71001 l -9.25,-4.76191 0.0239,46.09816 c 0.0131,25.35399 0.42954,47.84692 0.92539,49.98429 1.15018,4.95792 7.49669,11.50692 15.05528,15.5356 22.35615,11.9157 57.60414,21.72387 95.49547,26.57274 35.8228,4.58417 41.5,6.72664 41.5,15.66129 0,3.266 -0.65427,4.69851 -3.4,7.44424 -3.69776,3.69776 -4.94509,3.90979 -14.1,2.39687 -3.3,-0.54536 -13.425,-1.92668 -22.5,-3.0696 -18.88813,-2.37882 -44.07178,-6.91395 -58.14255,-10.47044 -18.36948,-4.64302 -40.32654,-13.55538 -50.29803,-20.41595 -4.62379,-3.18125 -4.62379,-3.18125 -4.34161,52.71303 0.28219,55.89427 0.28219,55.89427 3.06252,60.09458 5.56629,8.40909 22.06519,18.08226 43.71967,25.63247 19.58953,6.83023 53.89784,14.12419 79.87475,16.9814 8.30785,0.91379 14.2915,2.07178 15.79463,3.05667 5.28736,3.4644 5.3769,11.58853 0.18496,16.78047 -2.99857,2.99858 -2.99857,2.99858 -14.67646,2.39114 -12.94084,-0.67314 -20.66142,-1.89589 -48.81751,-7.73152 -32.77375,-6.7927 -56.37815,-15.25913 -74.11037,-26.58192 l -5.25,-3.35236 v 57.80944 c 0,51.46504 0.18397,58.34936 1.67629,62.72909 7.33154,21.51687 61.51869,41.99368 137.32371,51.89333 44.83616,5.85532 100.32541,7.90523 149.5,5.52292 z m 9.88812,-22.95969 c -3.01184,-1.21692 -6.22927,-5.65626 -6.97313,-9.62138 C 526.63991,841 526.63991,841 478.82875,841 c -47.81116,0 -47.81116,0 -48.91773,3.35295 -1.60811,4.87263 -5.20086,7.79718 -10.2823,8.36993 -3.66322,0.4129 -4.85864,0.0702 -7.49552,-2.14854 -4.61495,-3.88323 -5.65621,-8.16777 -4.88479,-20.0997 0.78412,-12.12842 3.36215,-22.03661 8.27298,-31.79564 7.97923,-15.8567 16.88208,-26.7781 30.71497,-37.679 6.22953,-4.90913 9.53606,-8.19515 9.57169,-9.51231 0.0376,-1.38828 -2.61307,-4.02417 -8.54753,-8.5 -4.73109,-3.56823 -13.43881,-11.47793 -19.35049,-17.5771 -16.44166,-16.96312 -20.78741,-27.27284 -19.76898,-46.89934 0.67261,-12.96204 2.31493,-17.92722 10.29825,-31.13448 7.60795,-12.58624 8.64671,-13.76166 25.67319,-29.05065 9.10466,-8.17557 12.7385,-12.07466 12.70979,-13.63752 -0.0274,-1.49267 -1.96945,-3.61951 -6.10735,-6.6886 -7.44157,-5.51943 -24.35819,-23.04761 -30.35773,-31.45521 -10.62508,-14.88972 -13.52269,-24.47165 -13.71494,-45.35309 -0.111,-12.05637 0.16872,-15.27163 1.55941,-17.92477 4.68003,-8.92849 16.87629,-7.89805 20.96134,1.77099 1.96489,4.65077 1.96489,4.65077 24.49379,5.30643 28.53314,0.83039 66.99905,0.84698 71.08069,0.0306 2.6452,-0.52904 3.125,-1.07404 3.125,-3.54966 0,-3.6597 2.41353,-8.4411 4.94461,-9.7957 3.06694,-1.64137 9.3017,-1.1837 12.48796,0.9167 5.05288,3.33088 5.49353,5.15571 5.53199,22.90932 0.0393,18.13663 -1.07162,24.45149 -6.0293,34.27259 -5.48314,10.86203 -25.08883,33.03516 -39.73721,44.94093 -2.92905,2.38065 -4.10733,4.00366 -3.69212,5.08568 0.33541,0.87405 5.36981,5.80927 11.18756,10.96716 5.81776,5.15789 13.32921,12.35236 16.69213,15.98772 10.86959,11.75018 18.5104,27.79995 20.83827,43.77145 2.08709,14.31947 -3.06143,31.23152 -12.54944,41.2229 -4.83805,5.09472 -24.97989,23.05231 -31.92722,28.46493 -2.61098,2.03419 -4.74723,4.48727 -4.74723,5.4513 0,0.96402 3.09677,4.28632 6.8817,7.3829 10.07922,8.24612 28.10475,27.34411 31.97291,33.8752 8.098,13.67283 11.11288,25.54187 11.10579,43.72158 -0.005,13.33793 -0.6304,15.31865 -5.64466,17.88296 -2.53753,1.2977 -7.88884,1.36478 -10.92762,0.13697 z M 521.5335,820.35095 c 6.23145,-0.73238 6.54599,-1.65119 3.21557,-9.39296 -2.11341,-4.91277 -2.11341,-4.91277 -40.75,-5.18538 -21.25012,-0.14993 -40.97524,-0.13742 -43.8336,0.0278 -5.19701,0.30042 -5.19701,0.30042 -7.25,5.78751 -3.87778,10.36432 -8.09553,9.38934 40.61803,9.38934 23.46906,0 45.06906,-0.28184 48,-0.62632 z m -21.17101,-38.95049 c -5.39336,-4.54412 -21.48738,-16.40062 -22.25273,-16.39364 -1.29252,0.0118 -22.58493,16.43088 -23.00951,17.74318 -0.31626,0.97749 4.90045,1.24216 23.92891,1.21404 24.33333,-0.036 24.33333,-0.036 21.33333,-2.56358 z M 498.19377,722.5 c 9.65526,-7.7 17.5806,-14.30995 17.61187,-14.68877 0.0556,-0.6735 -73.88646,-0.20125 -74.56394,0.47622 -1.20008,1.20009 36.62963,29.81448 38.20823,28.9007 0.65386,-0.37848 9.08859,-6.98815 18.74384,-14.68815 z m 29.07948,-45.70384 c -0.0563,-5.49133 -0.56286,-9.27451 -1.37245,-10.25 C 524.77818,665.19349 519.02547,665 479.93117,665 c -34.88013,0 -45.07307,0.28272 -46.44834,1.28835 -1.90847,1.3955 -4.41277,15.20423 -3.28865,18.13364 0.55162,1.4375 5.44159,1.57128 48.89062,1.33763 l 48.27769,-0.25962 -0.0892,-8.70384 z M 503.81762,637.71354 C 495.81182,630.18612 483.56379,622 480.30713,622 c -3.31379,0 -13.39278,6.21028 -23.19464,14.29163 -3.9875,3.28758 -7.25,6.14188 -7.25,6.34289 0,0.20101 13.3875,0.34907 29.75,0.32902 l 29.75,-0.0365 -5.54487,-5.21353 z m -18.74837,-50.7271 c 2.50231,-1.65746 7.41696,-5.68754 10.92145,-8.95572 l 6.37179,-5.94216 -23.5,-0.006 -23.5,-0.006 5.34663,4.9866 c 6.46982,6.03415 16.06622,12.81697 18.23193,12.88649 0.8682,0.0279 3.62589,-1.30543 6.1282,-2.96289 z M 525.11696,543.75 c 1.35694,-3.4375 2.76128,-7.47921 3.12077,-8.98157 0.65361,-2.73157 0.65361,-2.73157 -48.94463,-3 -27.27903,-0.14764 -49.74121,-0.12524 -49.91596,0.0498 -0.56958,0.57045 4.25068,15.19411 5.50743,16.7084 1.04265,1.25633 7.59791,1.4734 44.49402,1.4734 h 43.27122 l 2.46715,-6.25 z m 1.24553,-92.7646 c 59.68349,-3.49415 109.80969,-11.64649 147.65733,-24.01445 13.61865,-4.45035 38.49896,-16.98574 43.10711,-21.71856 9.30484,-9.55659 5.99374,-17.29609 -12.02858,-28.11604 -11.05092,-6.63457 -20.37807,-10.40018 -38.55416,-15.5653 -33.32095,-9.46885 -56.91744,-13.89051 -90.6817,-16.9925 -15.89923,-1.4607 -54.53405,-3.97468 -75.70947,-4.92644 l -10.20946,-0.45888 -0.29054,30.96156 c -0.29053,30.96156 -0.29053,30.96156 -2.73887,32.80729 -3.09542,2.33355 -9.14396,3.33353 -12.48349,2.06384 -1.41199,-0.53684 -3.46578,-2.44979 -4.56397,-4.25099 -1.87314,-3.07223 -1.99696,-5.05444 -2.00046,-32.02493 l -0.004,-28.75 h -11.42242 c -6.28234,0 -22.59484,0.67956 -36.25,1.51013 -57.00205,3.46712 -89.20402,8.53671 -129.82758,20.43889 -23.45402,6.87172 -33.80799,11.55418 -45.58156,20.61374 -7.22988,5.56326 -9.31105,9.15391 -8.40705,14.50464 1.26043,7.46046 3.88372,9.87602 18.98861,17.48497 23.54372,11.85994 54.37004,20.93198 93,27.36948 20.12283,3.35337 60.51372,7.81766 81.5,9.00797 20.29664,1.1512 77.22566,1.18398 96.5,0.0556 z m 22.52623,-173.03326 c 16.13709,-1.99551 33.96582,-8.25193 47.10739,-16.53084 25.66408,-16.16782 44.86638,-60.45279 44.86638,-103.47234 0,-6.9726 0,-6.9726 -3.75,-6.47015 -2.0625,0.27634 -7.35,0.98357 -11.75,1.57162 -23.64395,3.15995 -55.24353,14.60611 -73.07114,26.46819 -23.17564,15.42054 -38.3962,43.10524 -39.89954,72.57333 -0.27801,5.44943 -0.14905,9.90805 0.28656,9.90805 0.43562,0 3.24275,-3.24155 6.23808,-7.20343 10.44049,-13.80956 42.59372,-44.20435 57.17333,-54.04657 5.56528,-3.75694 9.1395,-3.58321 13.37271,0.65 2.7567,2.7567 3.4,4.17275 3.4,7.48422 0,4.99323 -0.81487,5.9216 -19,21.64663 -15.75542,13.62401 -46,45.09016 -46,47.85793 0,0.95921 11.70386,0.71616 21.02623,-0.43664 z m -112.02623,-1.56766 c 0,-4.8057 -34.58827,-42.2335 -54.22963,-58.68162 -5.76645,-4.82896 -10.99878,-9.90876 -11.62741,-11.28844 -2.83093,-6.21321 -0.52889,-12.51957 5.48773,-15.03347 2.91545,-1.21816 3.8421,-1.21025 6.87918,0.0587 10.04249,4.19602 50.69796,42.65499 64.62755,61.13591 l 4.36258,5.78801 0.32527,-6.4318 c 0.44426,-8.78467 -1.3505,-19.34367 -5.51257,-32.4318 -9.16137,-28.80901 -25.01102,-46.84861 -53.8127,-61.248 -16.91625,-8.45728 -29.52706,-11.92597 -65.39273,-17.98669 -3.39273,-0.57332 -3.39273,-0.57332 -2.81332,16.33069 0.62325,18.18285 2.31553,28.11515 7.81852,45.88839 3.58158,11.56758 6.13902,16.94185 13.34922,28.05239 17.34976,26.73506 37.23181,39.52243 68.27602,43.91249 5.91926,0.83706 12.78729,1.67479 15.26229,1.86162 2.475,0.18683 5.0625,0.41831 5.75,0.5144 0.6875,0.0961 1.25,-0.10227 1.25,-0.44081 z"
       id="path9086" />
  </g>
</svg>
